<svg width="512" height="512" viewBox="0 0 512 512" fill="none" xmlns="http://www.w3.org/2000/svg">
<rect width="512" height="512" rx="256" fill="#7241FF"/>
<path fill-rule="evenodd" clip-rule="evenodd" d="M280.462 353.232C271.1 355.984 261.193 357.46 250.941 357.46C193.216 357.46 146.421 310.665 146.421 252.941C146.421 195.216 193.216 148.421 250.941 148.421C303.616 148.421 347.19 187.388 354.41 238.069L362.53 225.423C363.631 223.708 366.29 224.488 366.29 226.526V317.68C366.29 318.808 367.204 319.722 368.331 319.722H402.896C411.889 299.289 416.881 276.698 416.881 252.941C416.881 161.294 342.587 87 250.941 87C159.294 87 85 161.294 85 252.941C85 344.587 159.294 418.881 250.941 418.881C280.48 418.881 308.217 411.163 332.244 397.633H255.69C254.075 397.633 253.099 395.847 253.972 394.488L280.462 353.232Z" fill="white"/>
<path d="M352.601 382.834H283.025C281.407 382.834 280.432 381.042 281.311 379.683L350.368 272.967C351.523 271.182 354.298 272.132 354.116 274.25L348.29 342.24C348.188 343.432 349.128 344.456 350.324 344.456H423.231C424.852 344.456 425.827 346.255 424.941 347.613L352.497 458.684C351.34 460.458 348.581 459.514 348.752 457.404L354.636 385.041C354.732 383.852 353.793 382.834 352.601 382.834Z" fill="white"/>
</svg>
