<svg width="24" height="24" viewBox="0 0 24 24" fill="none" xmlns="http://www.w3.org/2000/svg">
<path d="M10.2769 16.515C10.2819 16.405 10.4629 16.361 10.5169 16.457C10.7709 16.907 11.2029 17.568 11.6929 17.869C12.1829 18.169 12.9689 18.255 13.4849 18.277C13.5949 18.282 13.6379 18.463 13.5419 18.517C13.0919 18.771 12.4319 19.203 12.1309 19.693C11.8299 20.183 11.7449 20.969 11.7229 21.485C11.7179 21.595 11.5359 21.638 11.4829 21.542C11.2289 21.092 10.7969 20.432 10.3059 20.131C9.81591 19.83 9.02991 19.745 8.51491 19.723C8.40491 19.718 8.36091 19.536 8.45691 19.483C8.90691 19.229 9.56791 18.797 9.86891 18.306C10.1689 17.816 10.2549 17.03 10.2769 16.515Z" fill="#898EA1"/>
<path opacity="0.5" d="M18.4918 15.515C18.4828 15.405 18.2918 15.359 18.2338 15.453C18.0618 15.736 17.8138 16.076 17.5368 16.246C17.2608 16.416 16.8448 16.482 16.5148 16.508C16.4048 16.516 16.3588 16.708 16.4528 16.765C16.7348 16.937 17.0758 17.185 17.2458 17.462C17.4158 17.738 17.4818 18.155 17.5078 18.485C17.5158 18.595 17.7078 18.64 17.7648 18.546C17.9368 18.264 18.1848 17.923 18.4618 17.754C18.7378 17.584 19.1548 17.517 19.4848 17.492C19.5948 17.483 19.6398 17.292 19.5458 17.234C19.2638 17.062 18.9228 16.814 18.7538 16.537C18.5838 16.261 18.5168 15.845 18.4918 15.515Z" fill="#898EA1"/>
<path d="M14.7029 4.002L14.4609 3.696C13.5239 2.513 13.0559 1.921 12.5109 2.008C11.9669 2.096 11.7059 2.804 11.1849 4.221L11.0499 4.587C10.9019 4.99 10.8279 5.191 10.6859 5.339C10.5439 5.487 10.3499 5.564 9.9619 5.719L9.6089 5.86L9.3619 5.96C8.1619 6.44 7.5579 6.713 7.4799 7.243C7.3979 7.808 7.9699 8.292 9.1139 9.259L9.4099 9.509C9.7359 9.784 9.8979 9.922 9.9909 10.109C10.0849 10.296 10.0979 10.512 10.1239 10.944L10.1479 11.337C10.2419 12.857 10.2879 13.617 10.7829 13.879C11.2769 14.141 11.8909 13.732 13.1189 12.913L13.4369 12.701C13.7859 12.468 13.9599 12.351 14.1599 12.32C14.3599 12.288 14.5609 12.344 14.9659 12.456L15.3329 12.558C16.7559 12.952 17.4669 13.149 17.8539 12.746C18.2419 12.343 18.0489 11.606 17.6639 10.133L17.5639 9.752C17.4549 9.333 17.3999 9.124 17.4299 8.917C17.4599 8.71 17.5719 8.528 17.7959 8.165L17.9989 7.835C18.7839 6.559 19.1769 5.921 18.9229 5.409C18.6679 4.899 17.9349 4.852 16.4689 4.761L16.0889 4.737C15.6729 4.711 15.4649 4.698 15.2839 4.602C15.1029 4.506 14.9699 4.338 14.7039 4.002H14.7029Z" fill="#898EA1"/>
<path opacity="0.5" d="M8.83489 13.326C6.69789 14.37 4.91889 16.024 4.24789 18C3.49589 13.293 4.53988 10.253 6.21288 8.363C6.35688 8.658 6.54488 8.902 6.71288 9.093C7.06288 9.489 7.56488 9.913 8.07488 10.344L8.44189 10.654L8.61189 10.799C8.61689 10.863 8.62188 10.939 8.62688 11.036L8.65688 11.521C8.69688 12.176 8.73689 12.815 8.83489 13.326Z" fill="#898EA1"/>
</svg>
